<mxfile host="Electron" agent="Mozilla/5.0 (Windows NT 10.0; Win64; x64) AppleWebKit/537.36 (KHTML, like Gecko) draw.io/26.0.9 Chrome/128.0.6613.186 Electron/32.2.5 Safari/537.36" version="26.0.9">
  <diagram name="Page-1" id="dk0BLQ0vGCtDV3BGHtBp">
    <mxGraphModel dx="398" dy="232" grid="0" gridSize="10" guides="1" tooltips="1" connect="1" arrows="1" fold="1" page="1" pageScale="1" pageWidth="1169" pageHeight="827" math="0" shadow="0">
      <root>
        <mxCell id="0" />
        <mxCell id="1" parent="0" />
        <mxCell id="KzrMxSu9E95NkVSmFdwG-59" value="" style="endArrow=none;html=1;rounded=0;strokeWidth=2;" parent="1" edge="1">
          <mxGeometry width="50" height="50" relative="1" as="geometry">
            <mxPoint x="514" y="475" as="sourcePoint" />
            <mxPoint x="520" y="474.92" as="targetPoint" />
          </mxGeometry>
        </mxCell>
        <mxCell id="KzrMxSu9E95NkVSmFdwG-36" value="" style="endArrow=none;html=1;rounded=0;strokeWidth=2;" parent="1" edge="1">
          <mxGeometry width="50" height="50" relative="1" as="geometry">
            <mxPoint x="520" y="525" as="sourcePoint" />
            <mxPoint x="520" y="514" as="targetPoint" />
          </mxGeometry>
        </mxCell>
        <mxCell id="KzrMxSu9E95NkVSmFdwG-35" value="" style="endArrow=none;html=1;rounded=0;strokeWidth=2;" parent="1" edge="1">
          <mxGeometry width="50" height="50" relative="1" as="geometry">
            <mxPoint x="560" y="525" as="sourcePoint" />
            <mxPoint x="560" y="520" as="targetPoint" />
          </mxGeometry>
        </mxCell>
        <mxCell id="KzrMxSu9E95NkVSmFdwG-34" value="" style="endArrow=none;html=1;rounded=0;strokeWidth=2;" parent="1" edge="1">
          <mxGeometry width="50" height="50" relative="1" as="geometry">
            <mxPoint x="599.9399999999999" y="525" as="sourcePoint" />
            <mxPoint x="600" y="520" as="targetPoint" />
          </mxGeometry>
        </mxCell>
        <mxCell id="KzrMxSu9E95NkVSmFdwG-33" value="" style="endArrow=none;html=1;rounded=0;strokeWidth=2;" parent="1" edge="1">
          <mxGeometry width="50" height="50" relative="1" as="geometry">
            <mxPoint x="640" y="525" as="sourcePoint" />
            <mxPoint x="640" y="520" as="targetPoint" />
          </mxGeometry>
        </mxCell>
        <mxCell id="KzrMxSu9E95NkVSmFdwG-32" value="" style="endArrow=none;html=1;rounded=0;strokeWidth=2;" parent="1" edge="1">
          <mxGeometry width="50" height="50" relative="1" as="geometry">
            <mxPoint x="680" y="525" as="sourcePoint" />
            <mxPoint x="680" y="520" as="targetPoint" />
          </mxGeometry>
        </mxCell>
        <mxCell id="KzrMxSu9E95NkVSmFdwG-31" value="" style="endArrow=none;html=1;rounded=0;strokeWidth=2;" parent="1" edge="1">
          <mxGeometry width="50" height="50" relative="1" as="geometry">
            <mxPoint x="720.9399999999999" y="525" as="sourcePoint" />
            <mxPoint x="720.9399999999999" y="514" as="targetPoint" />
          </mxGeometry>
        </mxCell>
        <mxCell id="KzrMxSu9E95NkVSmFdwG-30" value="" style="endArrow=none;html=1;rounded=0;strokeWidth=2;" parent="1" edge="1">
          <mxGeometry width="50" height="50" relative="1" as="geometry">
            <mxPoint x="840" y="525" as="sourcePoint" />
            <mxPoint x="840" y="520" as="targetPoint" />
          </mxGeometry>
        </mxCell>
        <mxCell id="KzrMxSu9E95NkVSmFdwG-28" value="" style="endArrow=none;html=1;rounded=0;strokeWidth=2;" parent="1" edge="1">
          <mxGeometry width="50" height="50" relative="1" as="geometry">
            <mxPoint x="800" y="525" as="sourcePoint" />
            <mxPoint x="800" y="520" as="targetPoint" />
          </mxGeometry>
        </mxCell>
        <mxCell id="KzrMxSu9E95NkVSmFdwG-27" value="" style="endArrow=none;html=1;rounded=0;strokeWidth=2;" parent="1" edge="1">
          <mxGeometry width="50" height="50" relative="1" as="geometry">
            <mxPoint x="760" y="525" as="sourcePoint" />
            <mxPoint x="760" y="520" as="targetPoint" />
          </mxGeometry>
        </mxCell>
        <mxCell id="e5i2rdITL7y43TCx04cZ-5" value="" style="endArrow=classic;html=1;rounded=0;strokeWidth=2;" parent="1" edge="1">
          <mxGeometry width="50" height="50" relative="1" as="geometry">
            <mxPoint x="80" y="520" as="sourcePoint" />
            <mxPoint x="440" y="520" as="targetPoint" />
          </mxGeometry>
        </mxCell>
        <mxCell id="e5i2rdITL7y43TCx04cZ-6" value="" style="endArrow=classic;html=1;rounded=0;strokeWidth=2;" parent="1" edge="1">
          <mxGeometry width="50" height="50" relative="1" as="geometry">
            <mxPoint x="80" y="520" as="sourcePoint" />
            <mxPoint x="80" y="280" as="targetPoint" />
          </mxGeometry>
        </mxCell>
        <mxCell id="e5i2rdITL7y43TCx04cZ-7" value="" style="curved=1;endArrow=none;html=1;rounded=0;fillColor=#f8cecc;strokeColor=#b85450;startFill=0;strokeWidth=2;" parent="1" edge="1">
          <mxGeometry width="50" height="50" relative="1" as="geometry">
            <mxPoint x="80" y="475" as="sourcePoint" />
            <mxPoint x="437" y="422" as="targetPoint" />
            <Array as="points">
              <mxPoint x="120" y="430" />
              <mxPoint x="160" y="386" />
              <mxPoint x="188" y="422" />
              <mxPoint x="201" y="442" />
              <mxPoint x="267" y="517" />
              <mxPoint x="280" y="520" />
              <mxPoint x="294" y="517" />
              <mxPoint x="330" y="475" />
              <mxPoint x="363" y="429" />
              <mxPoint x="380" y="411" />
              <mxPoint x="403" y="390" />
              <mxPoint x="430" y="414" />
            </Array>
          </mxGeometry>
        </mxCell>
        <mxCell id="e5i2rdITL7y43TCx04cZ-8" value="&lt;font style=&quot;font-size: 15px;&quot;&gt;&lt;b style=&quot;&quot;&gt;f(t)&lt;/b&gt;&lt;/font&gt;" style="text;html=1;align=center;verticalAlign=middle;whiteSpace=wrap;rounded=0;" parent="1" vertex="1">
          <mxGeometry x="40" y="280" width="40" height="20" as="geometry" />
        </mxCell>
        <mxCell id="e5i2rdITL7y43TCx04cZ-9" value="&lt;b style=&quot;&quot;&gt;&lt;font style=&quot;font-size: 15px;&quot;&gt;t&lt;/font&gt;&lt;/b&gt;" style="text;html=1;align=center;verticalAlign=middle;whiteSpace=wrap;rounded=0;" parent="1" vertex="1">
          <mxGeometry x="430" y="520" width="40" height="20" as="geometry" />
        </mxCell>
        <mxCell id="e5i2rdITL7y43TCx04cZ-10" value="" style="endArrow=classic;html=1;rounded=0;strokeWidth=2;" parent="1" edge="1">
          <mxGeometry width="50" height="50" relative="1" as="geometry">
            <mxPoint x="520" y="520" as="sourcePoint" />
            <mxPoint x="880" y="520" as="targetPoint" />
          </mxGeometry>
        </mxCell>
        <mxCell id="e5i2rdITL7y43TCx04cZ-11" value="" style="endArrow=classic;html=1;rounded=0;strokeWidth=2;" parent="1" source="e5i2rdITL7y43TCx04cZ-23" edge="1">
          <mxGeometry width="50" height="50" relative="1" as="geometry">
            <mxPoint x="520" y="520" as="sourcePoint" />
            <mxPoint x="520" y="280" as="targetPoint" />
          </mxGeometry>
        </mxCell>
        <mxCell id="e5i2rdITL7y43TCx04cZ-13" value="&lt;font style=&quot;font-size: 15px;&quot;&gt;&lt;b style=&quot;&quot;&gt;f(x)&lt;/b&gt;&lt;/font&gt;" style="text;html=1;align=center;verticalAlign=middle;whiteSpace=wrap;rounded=0;" parent="1" vertex="1">
          <mxGeometry x="475" y="280" width="40" height="20" as="geometry" />
        </mxCell>
        <mxCell id="e5i2rdITL7y43TCx04cZ-14" value="&lt;b style=&quot;&quot;&gt;&lt;font style=&quot;font-size: 15px;&quot;&gt;x&lt;/font&gt;&lt;/b&gt;" style="text;html=1;align=center;verticalAlign=middle;whiteSpace=wrap;rounded=0;" parent="1" vertex="1">
          <mxGeometry x="870" y="520" width="40" height="20" as="geometry" />
        </mxCell>
        <mxCell id="e5i2rdITL7y43TCx04cZ-15" value="" style="endArrow=none;html=1;rounded=0;fillColor=#dae8fc;strokeColor=#6c8ebf;strokeWidth=2;" parent="1" edge="1">
          <mxGeometry width="50" height="50" relative="1" as="geometry">
            <mxPoint x="560" y="519" as="sourcePoint" />
            <mxPoint x="560" y="440" as="targetPoint" />
          </mxGeometry>
        </mxCell>
        <mxCell id="e5i2rdITL7y43TCx04cZ-16" value="" style="endArrow=none;html=1;rounded=0;fillColor=#dae8fc;strokeColor=#6c8ebf;strokeWidth=2;" parent="1" edge="1">
          <mxGeometry width="50" height="50" relative="1" as="geometry">
            <mxPoint x="520" y="519" as="sourcePoint" />
            <mxPoint x="520" y="480" as="targetPoint" />
          </mxGeometry>
        </mxCell>
        <mxCell id="e5i2rdITL7y43TCx04cZ-17" value="" style="endArrow=none;html=1;rounded=0;fillColor=#dae8fc;strokeColor=#6c8ebf;strokeWidth=2;" parent="1" edge="1">
          <mxGeometry width="50" height="50" relative="1" as="geometry">
            <mxPoint x="600" y="519" as="sourcePoint" />
            <mxPoint x="600" y="400" as="targetPoint" />
          </mxGeometry>
        </mxCell>
        <mxCell id="e5i2rdITL7y43TCx04cZ-18" value="" style="endArrow=none;html=1;rounded=0;fillColor=#dae8fc;strokeColor=#6c8ebf;strokeWidth=2;" parent="1" edge="1">
          <mxGeometry width="50" height="50" relative="1" as="geometry">
            <mxPoint x="640" y="519" as="sourcePoint" />
            <mxPoint x="640" y="440" as="targetPoint" />
          </mxGeometry>
        </mxCell>
        <mxCell id="e5i2rdITL7y43TCx04cZ-19" value="" style="endArrow=none;html=1;rounded=0;fillColor=#dae8fc;strokeColor=#6c8ebf;strokeWidth=2;" parent="1" edge="1">
          <mxGeometry width="50" height="50" relative="1" as="geometry">
            <mxPoint x="680" y="519" as="sourcePoint" />
            <mxPoint x="680" y="480" as="targetPoint" />
          </mxGeometry>
        </mxCell>
        <mxCell id="e5i2rdITL7y43TCx04cZ-20" value="" style="endArrow=none;html=1;rounded=0;fillColor=#dae8fc;strokeColor=#6c8ebf;strokeWidth=2;" parent="1" edge="1">
          <mxGeometry width="50" height="50" relative="1" as="geometry">
            <mxPoint x="760" y="519" as="sourcePoint" />
            <mxPoint x="760" y="480" as="targetPoint" />
          </mxGeometry>
        </mxCell>
        <mxCell id="e5i2rdITL7y43TCx04cZ-21" value="" style="endArrow=none;html=1;rounded=0;fillColor=#dae8fc;strokeColor=#6c8ebf;strokeWidth=2;" parent="1" edge="1">
          <mxGeometry width="50" height="50" relative="1" as="geometry">
            <mxPoint x="800" y="519" as="sourcePoint" />
            <mxPoint x="800" y="440" as="targetPoint" />
          </mxGeometry>
        </mxCell>
        <mxCell id="e5i2rdITL7y43TCx04cZ-22" value="" style="endArrow=none;html=1;rounded=0;fillColor=#dae8fc;strokeColor=#6c8ebf;strokeWidth=2;" parent="1" edge="1">
          <mxGeometry width="50" height="50" relative="1" as="geometry">
            <mxPoint x="840" y="519" as="sourcePoint" />
            <mxPoint x="840" y="400" as="targetPoint" />
          </mxGeometry>
        </mxCell>
        <mxCell id="e5i2rdITL7y43TCx04cZ-23" value="" style="ellipse;whiteSpace=wrap;html=1;aspect=fixed;fillColor=#dae8fc;strokeColor=#6c8ebf;" parent="1" vertex="1">
          <mxGeometry x="515" y="470" width="10" height="10" as="geometry" />
        </mxCell>
        <mxCell id="e5i2rdITL7y43TCx04cZ-30" value="" style="ellipse;whiteSpace=wrap;html=1;aspect=fixed;fillColor=#dae8fc;strokeColor=#6c8ebf;" parent="1" vertex="1">
          <mxGeometry x="555" y="430" width="10" height="10" as="geometry" />
        </mxCell>
        <mxCell id="e5i2rdITL7y43TCx04cZ-31" value="" style="ellipse;whiteSpace=wrap;html=1;aspect=fixed;fillColor=#dae8fc;strokeColor=#6c8ebf;" parent="1" vertex="1">
          <mxGeometry x="595" y="390" width="10" height="10" as="geometry" />
        </mxCell>
        <mxCell id="e5i2rdITL7y43TCx04cZ-32" value="" style="ellipse;whiteSpace=wrap;html=1;aspect=fixed;fillColor=#dae8fc;strokeColor=#6c8ebf;" parent="1" vertex="1">
          <mxGeometry x="635" y="430" width="10" height="10" as="geometry" />
        </mxCell>
        <mxCell id="e5i2rdITL7y43TCx04cZ-33" value="" style="ellipse;whiteSpace=wrap;html=1;aspect=fixed;fillColor=#dae8fc;strokeColor=#6c8ebf;" parent="1" vertex="1">
          <mxGeometry x="675" y="470" width="10" height="10" as="geometry" />
        </mxCell>
        <mxCell id="e5i2rdITL7y43TCx04cZ-34" value="" style="ellipse;whiteSpace=wrap;html=1;aspect=fixed;fillColor=#dae8fc;strokeColor=#6c8ebf;" parent="1" vertex="1">
          <mxGeometry x="716" y="514" width="10" height="10" as="geometry" />
        </mxCell>
        <mxCell id="e5i2rdITL7y43TCx04cZ-35" value="" style="ellipse;whiteSpace=wrap;html=1;aspect=fixed;fillColor=#dae8fc;strokeColor=#6c8ebf;" parent="1" vertex="1">
          <mxGeometry x="755" y="470" width="10" height="10" as="geometry" />
        </mxCell>
        <mxCell id="e5i2rdITL7y43TCx04cZ-36" value="" style="ellipse;whiteSpace=wrap;html=1;aspect=fixed;fillColor=#dae8fc;strokeColor=#6c8ebf;" parent="1" vertex="1">
          <mxGeometry x="795" y="430" width="10" height="10" as="geometry" />
        </mxCell>
        <mxCell id="e5i2rdITL7y43TCx04cZ-37" value="" style="ellipse;whiteSpace=wrap;html=1;aspect=fixed;fillColor=#dae8fc;strokeColor=#6c8ebf;" parent="1" vertex="1">
          <mxGeometry x="835" y="390" width="10" height="10" as="geometry" />
        </mxCell>
        <mxCell id="KzrMxSu9E95NkVSmFdwG-37" value="" style="endArrow=none;html=1;rounded=0;strokeWidth=2;" parent="1" edge="1">
          <mxGeometry width="50" height="50" relative="1" as="geometry">
            <mxPoint x="400" y="525" as="sourcePoint" />
            <mxPoint x="400" y="520" as="targetPoint" />
          </mxGeometry>
        </mxCell>
        <mxCell id="KzrMxSu9E95NkVSmFdwG-38" value="" style="endArrow=none;html=1;rounded=0;strokeWidth=2;" parent="1" edge="1">
          <mxGeometry width="50" height="50" relative="1" as="geometry">
            <mxPoint x="380" y="525" as="sourcePoint" />
            <mxPoint x="380" y="520" as="targetPoint" />
          </mxGeometry>
        </mxCell>
        <mxCell id="KzrMxSu9E95NkVSmFdwG-39" value="" style="endArrow=none;html=1;rounded=0;strokeWidth=2;" parent="1" edge="1">
          <mxGeometry width="50" height="50" relative="1" as="geometry">
            <mxPoint x="360" y="525" as="sourcePoint" />
            <mxPoint x="360" y="520" as="targetPoint" />
          </mxGeometry>
        </mxCell>
        <mxCell id="KzrMxSu9E95NkVSmFdwG-40" value="" style="endArrow=none;html=1;rounded=0;strokeWidth=2;" parent="1" edge="1">
          <mxGeometry width="50" height="50" relative="1" as="geometry">
            <mxPoint x="340" y="525" as="sourcePoint" />
            <mxPoint x="340" y="520" as="targetPoint" />
          </mxGeometry>
        </mxCell>
        <mxCell id="KzrMxSu9E95NkVSmFdwG-41" value="" style="endArrow=none;html=1;rounded=0;strokeWidth=2;" parent="1" edge="1">
          <mxGeometry width="50" height="50" relative="1" as="geometry">
            <mxPoint x="320" y="525" as="sourcePoint" />
            <mxPoint x="320" y="520" as="targetPoint" />
          </mxGeometry>
        </mxCell>
        <mxCell id="KzrMxSu9E95NkVSmFdwG-42" value="" style="endArrow=none;html=1;rounded=0;strokeWidth=2;" parent="1" edge="1">
          <mxGeometry width="50" height="50" relative="1" as="geometry">
            <mxPoint x="300" y="525" as="sourcePoint" />
            <mxPoint x="300" y="520" as="targetPoint" />
          </mxGeometry>
        </mxCell>
        <mxCell id="KzrMxSu9E95NkVSmFdwG-43" value="" style="endArrow=none;html=1;rounded=0;strokeWidth=2;" parent="1" edge="1">
          <mxGeometry width="50" height="50" relative="1" as="geometry">
            <mxPoint x="280" y="525" as="sourcePoint" />
            <mxPoint x="280" y="520" as="targetPoint" />
          </mxGeometry>
        </mxCell>
        <mxCell id="KzrMxSu9E95NkVSmFdwG-44" value="" style="endArrow=none;html=1;rounded=0;strokeWidth=2;" parent="1" edge="1">
          <mxGeometry width="50" height="50" relative="1" as="geometry">
            <mxPoint x="260" y="525" as="sourcePoint" />
            <mxPoint x="260" y="520" as="targetPoint" />
          </mxGeometry>
        </mxCell>
        <mxCell id="KzrMxSu9E95NkVSmFdwG-45" value="" style="endArrow=none;html=1;rounded=0;strokeWidth=2;" parent="1" edge="1">
          <mxGeometry width="50" height="50" relative="1" as="geometry">
            <mxPoint x="240" y="525" as="sourcePoint" />
            <mxPoint x="240" y="520" as="targetPoint" />
          </mxGeometry>
        </mxCell>
        <mxCell id="KzrMxSu9E95NkVSmFdwG-46" value="" style="endArrow=none;html=1;rounded=0;strokeWidth=2;" parent="1" edge="1">
          <mxGeometry width="50" height="50" relative="1" as="geometry">
            <mxPoint x="220" y="525" as="sourcePoint" />
            <mxPoint x="220" y="520" as="targetPoint" />
          </mxGeometry>
        </mxCell>
        <mxCell id="KzrMxSu9E95NkVSmFdwG-47" value="" style="endArrow=none;html=1;rounded=0;strokeWidth=2;" parent="1" edge="1">
          <mxGeometry width="50" height="50" relative="1" as="geometry">
            <mxPoint x="200" y="525" as="sourcePoint" />
            <mxPoint x="200" y="520" as="targetPoint" />
          </mxGeometry>
        </mxCell>
        <mxCell id="KzrMxSu9E95NkVSmFdwG-48" value="" style="endArrow=none;html=1;rounded=0;strokeWidth=2;" parent="1" edge="1">
          <mxGeometry width="50" height="50" relative="1" as="geometry">
            <mxPoint x="180" y="525" as="sourcePoint" />
            <mxPoint x="180" y="520" as="targetPoint" />
          </mxGeometry>
        </mxCell>
        <mxCell id="KzrMxSu9E95NkVSmFdwG-49" value="" style="endArrow=none;html=1;rounded=0;strokeWidth=2;" parent="1" edge="1">
          <mxGeometry width="50" height="50" relative="1" as="geometry">
            <mxPoint x="160" y="525" as="sourcePoint" />
            <mxPoint x="160" y="520" as="targetPoint" />
          </mxGeometry>
        </mxCell>
        <mxCell id="KzrMxSu9E95NkVSmFdwG-50" value="" style="endArrow=none;html=1;rounded=0;strokeWidth=2;" parent="1" edge="1">
          <mxGeometry width="50" height="50" relative="1" as="geometry">
            <mxPoint x="140" y="525" as="sourcePoint" />
            <mxPoint x="140" y="520" as="targetPoint" />
          </mxGeometry>
        </mxCell>
        <mxCell id="KzrMxSu9E95NkVSmFdwG-51" value="" style="endArrow=none;html=1;rounded=0;strokeWidth=2;" parent="1" edge="1">
          <mxGeometry width="50" height="50" relative="1" as="geometry">
            <mxPoint x="120" y="525" as="sourcePoint" />
            <mxPoint x="120" y="520" as="targetPoint" />
          </mxGeometry>
        </mxCell>
        <mxCell id="KzrMxSu9E95NkVSmFdwG-52" value="" style="endArrow=none;html=1;rounded=0;strokeWidth=2;" parent="1" edge="1">
          <mxGeometry width="50" height="50" relative="1" as="geometry">
            <mxPoint x="100" y="525" as="sourcePoint" />
            <mxPoint x="100" y="519" as="targetPoint" />
          </mxGeometry>
        </mxCell>
        <mxCell id="KzrMxSu9E95NkVSmFdwG-53" value="" style="endArrow=none;html=1;rounded=0;strokeWidth=2;" parent="1" edge="1">
          <mxGeometry width="50" height="50" relative="1" as="geometry">
            <mxPoint x="80" y="525" as="sourcePoint" />
            <mxPoint x="80" y="514" as="targetPoint" />
          </mxGeometry>
        </mxCell>
        <mxCell id="KzrMxSu9E95NkVSmFdwG-54" value="" style="endArrow=none;html=1;rounded=0;strokeWidth=2;" parent="1" edge="1">
          <mxGeometry width="50" height="50" relative="1" as="geometry">
            <mxPoint x="75" y="475" as="sourcePoint" />
            <mxPoint x="80" y="474.91" as="targetPoint" />
          </mxGeometry>
        </mxCell>
        <mxCell id="KzrMxSu9E95NkVSmFdwG-55" value="" style="endArrow=none;html=1;rounded=0;strokeWidth=2;" parent="1" edge="1">
          <mxGeometry width="50" height="50" relative="1" as="geometry">
            <mxPoint x="75" y="435" as="sourcePoint" />
            <mxPoint x="80" y="434.91" as="targetPoint" />
          </mxGeometry>
        </mxCell>
        <mxCell id="KzrMxSu9E95NkVSmFdwG-56" value="" style="endArrow=none;html=1;rounded=0;strokeWidth=2;" parent="1" edge="1">
          <mxGeometry width="50" height="50" relative="1" as="geometry">
            <mxPoint x="75" y="395" as="sourcePoint" />
            <mxPoint x="80" y="394.91" as="targetPoint" />
          </mxGeometry>
        </mxCell>
        <mxCell id="KzrMxSu9E95NkVSmFdwG-57" value="" style="endArrow=none;html=1;rounded=0;strokeWidth=2;" parent="1" edge="1">
          <mxGeometry width="50" height="50" relative="1" as="geometry">
            <mxPoint x="75" y="359" as="sourcePoint" />
            <mxPoint x="80" y="359" as="targetPoint" />
          </mxGeometry>
        </mxCell>
        <mxCell id="KzrMxSu9E95NkVSmFdwG-58" value="" style="endArrow=none;html=1;rounded=0;strokeWidth=2;" parent="1" edge="1">
          <mxGeometry width="50" height="50" relative="1" as="geometry">
            <mxPoint x="75" y="318" as="sourcePoint" />
            <mxPoint x="80" y="318" as="targetPoint" />
          </mxGeometry>
        </mxCell>
        <mxCell id="KzrMxSu9E95NkVSmFdwG-60" value="" style="endArrow=none;html=1;rounded=0;strokeWidth=2;" parent="1" edge="1">
          <mxGeometry width="50" height="50" relative="1" as="geometry">
            <mxPoint x="515" y="395" as="sourcePoint" />
            <mxPoint x="520" y="394.92" as="targetPoint" />
            <Array as="points">
              <mxPoint x="520" y="394.92" />
            </Array>
          </mxGeometry>
        </mxCell>
        <mxCell id="KzrMxSu9E95NkVSmFdwG-61" value="" style="endArrow=none;html=1;rounded=0;strokeWidth=2;" parent="1" edge="1">
          <mxGeometry width="50" height="50" relative="1" as="geometry">
            <mxPoint x="515" y="435" as="sourcePoint" />
            <mxPoint x="520" y="434.92" as="targetPoint" />
          </mxGeometry>
        </mxCell>
        <mxCell id="KzrMxSu9E95NkVSmFdwG-65" value="" style="endArrow=none;html=1;rounded=0;strokeWidth=2;" parent="1" edge="1">
          <mxGeometry width="50" height="50" relative="1" as="geometry">
            <mxPoint x="515" y="359" as="sourcePoint" />
            <mxPoint x="520" y="359" as="targetPoint" />
            <Array as="points">
              <mxPoint x="520" y="359" />
            </Array>
          </mxGeometry>
        </mxCell>
        <mxCell id="KzrMxSu9E95NkVSmFdwG-67" value="" style="endArrow=none;html=1;rounded=0;strokeWidth=2;" parent="1" edge="1">
          <mxGeometry width="50" height="50" relative="1" as="geometry">
            <mxPoint x="515" y="320" as="sourcePoint" />
            <mxPoint x="520" y="320" as="targetPoint" />
            <Array as="points">
              <mxPoint x="520" y="320" />
            </Array>
          </mxGeometry>
        </mxCell>
        <mxCell id="KzrMxSu9E95NkVSmFdwG-68" value="&lt;font style=&quot;font-size: 15px;&quot;&gt;&lt;b style=&quot;&quot;&gt;analogový signál&lt;/b&gt;&lt;/font&gt;" style="text;html=1;align=center;verticalAlign=middle;whiteSpace=wrap;rounded=0;" parent="1" vertex="1">
          <mxGeometry x="186" y="555" width="159" height="20" as="geometry" />
        </mxCell>
        <mxCell id="KzrMxSu9E95NkVSmFdwG-69" value="&lt;font style=&quot;font-size: 15px;&quot;&gt;&lt;b style=&quot;&quot;&gt;digitální (číslicový) signál&lt;/b&gt;&lt;/font&gt;" style="text;html=1;align=center;verticalAlign=middle;whiteSpace=wrap;rounded=0;" parent="1" vertex="1">
          <mxGeometry x="585" y="555" width="224" height="20" as="geometry" />
        </mxCell>
        <mxCell id="KzrMxSu9E95NkVSmFdwG-71" value="&lt;font&gt;&lt;b style=&quot;&quot;&gt;1&lt;/b&gt;&lt;/font&gt;" style="text;html=1;align=center;verticalAlign=middle;whiteSpace=wrap;rounded=0;" parent="1" vertex="1">
          <mxGeometry x="485" y="465" width="40" height="20" as="geometry" />
        </mxCell>
        <mxCell id="KzrMxSu9E95NkVSmFdwG-72" value="&lt;font&gt;&lt;b style=&quot;&quot;&gt;2&lt;/b&gt;&lt;/font&gt;" style="text;html=1;align=center;verticalAlign=middle;whiteSpace=wrap;rounded=0;" parent="1" vertex="1">
          <mxGeometry x="485" y="425" width="40" height="20" as="geometry" />
        </mxCell>
        <mxCell id="KzrMxSu9E95NkVSmFdwG-73" value="&lt;font&gt;&lt;b style=&quot;&quot;&gt;3&lt;/b&gt;&lt;/font&gt;" style="text;html=1;align=center;verticalAlign=middle;whiteSpace=wrap;rounded=0;" parent="1" vertex="1">
          <mxGeometry x="485" y="385" width="40" height="20" as="geometry" />
        </mxCell>
        <mxCell id="KzrMxSu9E95NkVSmFdwG-74" value="&lt;font&gt;&lt;b style=&quot;&quot;&gt;4&lt;/b&gt;&lt;/font&gt;" style="text;html=1;align=center;verticalAlign=middle;whiteSpace=wrap;rounded=0;" parent="1" vertex="1">
          <mxGeometry x="485" y="349" width="40" height="20" as="geometry" />
        </mxCell>
        <mxCell id="KzrMxSu9E95NkVSmFdwG-75" value="&lt;font&gt;&lt;b style=&quot;&quot;&gt;1&lt;/b&gt;&lt;/font&gt;" style="text;html=1;align=center;verticalAlign=middle;whiteSpace=wrap;rounded=0;" parent="1" vertex="1">
          <mxGeometry x="540" y="528" width="40" height="20" as="geometry" />
        </mxCell>
        <mxCell id="KzrMxSu9E95NkVSmFdwG-76" value="&lt;font&gt;&lt;b style=&quot;&quot;&gt;2&lt;/b&gt;&lt;/font&gt;" style="text;html=1;align=center;verticalAlign=middle;whiteSpace=wrap;rounded=0;" parent="1" vertex="1">
          <mxGeometry x="580" y="528" width="40" height="20" as="geometry" />
        </mxCell>
        <mxCell id="KzrMxSu9E95NkVSmFdwG-77" value="&lt;font&gt;&lt;b style=&quot;&quot;&gt;3&lt;/b&gt;&lt;/font&gt;" style="text;html=1;align=center;verticalAlign=middle;whiteSpace=wrap;rounded=0;" parent="1" vertex="1">
          <mxGeometry x="620" y="528" width="40" height="20" as="geometry" />
        </mxCell>
        <mxCell id="KzrMxSu9E95NkVSmFdwG-78" value="&lt;font style=&quot;font-size: 13px;&quot;&gt;&lt;b style=&quot;&quot;&gt;4&lt;/b&gt;&lt;/font&gt;" style="text;html=1;align=center;verticalAlign=middle;whiteSpace=wrap;rounded=0;" parent="1" vertex="1">
          <mxGeometry x="660" y="528" width="40" height="20" as="geometry" />
        </mxCell>
        <mxCell id="KzrMxSu9E95NkVSmFdwG-79" value="&lt;font&gt;&lt;b style=&quot;&quot;&gt;5&lt;/b&gt;&lt;/font&gt;" style="text;html=1;align=center;verticalAlign=middle;whiteSpace=wrap;rounded=0;" parent="1" vertex="1">
          <mxGeometry x="701" y="528" width="40" height="20" as="geometry" />
        </mxCell>
        <mxCell id="KzrMxSu9E95NkVSmFdwG-80" value="&lt;font&gt;&lt;b style=&quot;&quot;&gt;6&lt;/b&gt;&lt;/font&gt;" style="text;html=1;align=center;verticalAlign=middle;whiteSpace=wrap;rounded=0;" parent="1" vertex="1">
          <mxGeometry x="741" y="528" width="40" height="20" as="geometry" />
        </mxCell>
        <mxCell id="KzrMxSu9E95NkVSmFdwG-81" value="&lt;font&gt;&lt;b style=&quot;&quot;&gt;7&lt;/b&gt;&lt;/font&gt;" style="text;html=1;align=center;verticalAlign=middle;whiteSpace=wrap;rounded=0;" parent="1" vertex="1">
          <mxGeometry x="780" y="528" width="40" height="20" as="geometry" />
        </mxCell>
        <mxCell id="KzrMxSu9E95NkVSmFdwG-82" value="&lt;font&gt;&lt;b style=&quot;&quot;&gt;8&lt;/b&gt;&lt;/font&gt;" style="text;html=1;align=center;verticalAlign=middle;whiteSpace=wrap;rounded=0;" parent="1" vertex="1">
          <mxGeometry x="820" y="528" width="40" height="20" as="geometry" />
        </mxCell>
        <mxCell id="KzrMxSu9E95NkVSmFdwG-83" value="&lt;font&gt;&lt;b style=&quot;&quot;&gt;1&lt;/b&gt;&lt;/font&gt;" style="text;html=1;align=center;verticalAlign=middle;whiteSpace=wrap;rounded=0;" parent="1" vertex="1">
          <mxGeometry x="100" y="528" width="40" height="20" as="geometry" />
        </mxCell>
        <mxCell id="KzrMxSu9E95NkVSmFdwG-84" value="&lt;font&gt;&lt;b style=&quot;&quot;&gt;2&lt;/b&gt;&lt;/font&gt;" style="text;html=1;align=center;verticalAlign=middle;whiteSpace=wrap;rounded=0;" parent="1" vertex="1">
          <mxGeometry x="140" y="528" width="40" height="20" as="geometry" />
        </mxCell>
        <mxCell id="KzrMxSu9E95NkVSmFdwG-85" value="&lt;font&gt;&lt;b style=&quot;&quot;&gt;3&lt;/b&gt;&lt;/font&gt;" style="text;html=1;align=center;verticalAlign=middle;whiteSpace=wrap;rounded=0;" parent="1" vertex="1">
          <mxGeometry x="180" y="528" width="40" height="20" as="geometry" />
        </mxCell>
        <mxCell id="KzrMxSu9E95NkVSmFdwG-86" value="&lt;font&gt;&lt;b style=&quot;&quot;&gt;4&lt;/b&gt;&lt;/font&gt;" style="text;html=1;align=center;verticalAlign=middle;whiteSpace=wrap;rounded=0;" parent="1" vertex="1">
          <mxGeometry x="220" y="528" width="40" height="20" as="geometry" />
        </mxCell>
        <mxCell id="KzrMxSu9E95NkVSmFdwG-87" value="&lt;font&gt;&lt;b style=&quot;&quot;&gt;5&lt;/b&gt;&lt;/font&gt;" style="text;html=1;align=center;verticalAlign=middle;whiteSpace=wrap;rounded=0;" parent="1" vertex="1">
          <mxGeometry x="260" y="528" width="40" height="20" as="geometry" />
        </mxCell>
        <mxCell id="KzrMxSu9E95NkVSmFdwG-88" value="&lt;font&gt;&lt;b style=&quot;&quot;&gt;6&lt;/b&gt;&lt;/font&gt;" style="text;html=1;align=center;verticalAlign=middle;whiteSpace=wrap;rounded=0;" parent="1" vertex="1">
          <mxGeometry x="300" y="528" width="40" height="20" as="geometry" />
        </mxCell>
        <mxCell id="KzrMxSu9E95NkVSmFdwG-89" value="&lt;font&gt;&lt;b style=&quot;&quot;&gt;7&lt;/b&gt;&lt;/font&gt;" style="text;html=1;align=center;verticalAlign=middle;whiteSpace=wrap;rounded=0;" parent="1" vertex="1">
          <mxGeometry x="340" y="528" width="40" height="20" as="geometry" />
        </mxCell>
        <mxCell id="KzrMxSu9E95NkVSmFdwG-90" value="&lt;font&gt;&lt;b style=&quot;&quot;&gt;8&lt;/b&gt;&lt;/font&gt;" style="text;html=1;align=center;verticalAlign=middle;whiteSpace=wrap;rounded=0;" parent="1" vertex="1">
          <mxGeometry x="380" y="528" width="40" height="20" as="geometry" />
        </mxCell>
        <mxCell id="KzrMxSu9E95NkVSmFdwG-91" value="&lt;font&gt;&lt;b style=&quot;&quot;&gt;1&lt;/b&gt;&lt;/font&gt;" style="text;html=1;align=center;verticalAlign=middle;whiteSpace=wrap;rounded=0;" parent="1" vertex="1">
          <mxGeometry x="46" y="465" width="40" height="20" as="geometry" />
        </mxCell>
        <mxCell id="KzrMxSu9E95NkVSmFdwG-92" value="&lt;font&gt;&lt;b style=&quot;&quot;&gt;2&lt;/b&gt;&lt;/font&gt;" style="text;html=1;align=center;verticalAlign=middle;whiteSpace=wrap;rounded=0;" parent="1" vertex="1">
          <mxGeometry x="46" y="425" width="40" height="20" as="geometry" />
        </mxCell>
        <mxCell id="KzrMxSu9E95NkVSmFdwG-93" value="&lt;font&gt;&lt;b style=&quot;&quot;&gt;3&lt;/b&gt;&lt;/font&gt;" style="text;html=1;align=center;verticalAlign=middle;whiteSpace=wrap;rounded=0;" parent="1" vertex="1">
          <mxGeometry x="46" y="385" width="40" height="20" as="geometry" />
        </mxCell>
        <mxCell id="KzrMxSu9E95NkVSmFdwG-94" value="&lt;font&gt;&lt;b style=&quot;&quot;&gt;4&lt;/b&gt;&lt;/font&gt;" style="text;html=1;align=center;verticalAlign=middle;whiteSpace=wrap;rounded=0;" parent="1" vertex="1">
          <mxGeometry x="46" y="349" width="40" height="20" as="geometry" />
        </mxCell>
        <mxCell id="KzrMxSu9E95NkVSmFdwG-95" value="&lt;font&gt;&lt;b style=&quot;&quot;&gt;5&lt;/b&gt;&lt;/font&gt;" style="text;html=1;align=center;verticalAlign=middle;whiteSpace=wrap;rounded=0;" parent="1" vertex="1">
          <mxGeometry x="46" y="308" width="40" height="20" as="geometry" />
        </mxCell>
      </root>
    </mxGraphModel>
  </diagram>
</mxfile>
